<?xml version="1.0" encoding="UTF-8"?>
<svg xmlns="http://www.w3.org/2000/svg" xmlns:xlink="http://www.w3.org/1999/xlink" width="512px" height="512px" viewBox="0 0 512 512" version="1.1">
<g id="surface1">
<path style=" stroke:none;fill-rule:nonzero;fill:rgb(0%,0%,0%);fill-opacity:1;" d="M 50.652344 502.640625 C 30.617188 498.914062 18.203125 487.539062 12.90625 468.054688 C 11.484375 462.824219 11.398438 450.816406 11.398438 257.28125 L 11.398438 52.054688 L 13.304688 44.90625 C 18.191406 26.585938 30.183594 14.859375 48.945312 10.0625 C 54.601562 8.613281 65.664062 8.535156 258.863281 8.535156 C 449.605469 8.535156 463.183594 8.628906 468.566406 10.011719 C 482.738281 13.65625 493.625 22.035156 499.367188 33.707031 C 505.988281 47.164062 505.476562 28.59375 505.476562 256.851562 C 505.476562 450.625 505.402344 461.128906 503.933594 467.378906 C 499.726562 485.304688 488.941406 496.449219 470.492188 501.9375 C 465.644531 503.378906 454.441406 503.46875 261 503.605469 C 96.25 503.726562 55.464844 503.539062 50.652344 502.640625 Z M 135.683594 421.882812 C 140.746094 418.28125 140.679688 419.046875 140.679688 364.402344 L 140.679688 314.453125 L 148.359375 314.453125 L 148.359375 364.601562 C 148.359375 421.558594 148.042969 418.902344 155.246094 422.667969 C 161.628906 426.003906 168.042969 424.367188 172.625 418.230469 C 174.351562 415.921875 174.390625 414.867188 174.617188 365.164062 L 174.851562 314.453125 L 191.898438 314.453125 C 201.273438 314.453125 208.945312 314.21875 208.945312 313.933594 C 208.945312 313.648438 200.6875 285.046875 190.597656 250.375 C 180.507812 215.703125 172.25 187.136719 172.25 186.894531 C 172.25 186.652344 173.570312 186.453125 175.179688 186.453125 C 177.230469 186.453125 178.242188 186.902344 178.554688 187.945312 C 178.800781 188.769531 183.847656 205.742188 189.769531 225.667969 C 195.695312 245.589844 201.277344 262.925781 202.171875 264.183594 C 204.574219 267.558594 209.953125 269.480469 213.964844 268.398438 C 219.148438 267.003906 222.597656 262.304688 222.597656 256.644531 C 222.597656 252.296875 197.753906 170.402344 195.019531 165.734375 C 189.78125 156.792969 178.898438 149.0625 168.933594 147.203125 C 162.933594 146.085938 126.027344 146.09375 120.105469 147.21875 C 109.355469 149.257812 98.425781 157.210938 93.886719 166.300781 C 91.371094 171.332031 66.4375 253.398438 66.4375 256.636719 C 66.4375 263.519531 71.492188 268.363281 78.683594 268.371094 C 82.230469 268.371094 83.226562 267.96875 85.640625 265.554688 C 88.84375 262.351562 88.792969 262.5 102.347656 216.535156 L 111.21875 186.453125 L 114.058594 186.453125 C 116.367188 186.453125 116.816406 186.734375 116.449219 187.945312 C 114.523438 194.3125 80.089844 313.738281 80.089844 314.050781 C 80.089844 314.273438 87.769531 314.453125 97.15625 314.453125 L 114.226562 314.453125 L 114.226562 363.3125 C 114.226562 392.535156 114.558594 413.339844 115.058594 415.074219 C 116.0625 418.574219 118.859375 421.765625 122.332031 423.378906 C 125.78125 424.980469 132.371094 424.242188 135.683594 421.882812 Z M 359.59375 422.074219 C 364.257812 419.957031 367.324219 416.070312 368.441406 410.863281 C 369.066406 407.957031 369.371094 385.714844 369.371094 343.425781 L 369.371094 280.320312 L 374.492188 280.320312 L 374.492188 345.972656 C 374.492188 390.402344 374.785156 412.398438 375.402344 414.023438 C 379.816406 425.675781 397.773438 426.992188 404.15625 416.132812 L 406.492188 412.160156 L 406.71875 301.441406 L 406.941406 190.71875 L 412.039062 190.71875 L 412.039062 231.464844 C 412.039062 268.550781 412.175781 272.480469 413.53125 275.199219 C 417.449219 283.039062 430.15625 283.007812 434.371094 275.148438 C 435.828125 272.433594 435.929688 269.144531 435.929688 225.6875 C 435.929688 175.078125 435.820312 173.691406 431.070312 164.960938 C 428.082031 159.472656 420.816406 152.730469 415.046875 150.085938 C 407.550781 146.65625 401.683594 146.214844 367.519531 146.515625 C 337.296875 146.78125 335.414062 146.890625 330.738281 148.648438 C 321.105469 152.265625 313.332031 159.882812 309.332031 169.625 C 307.546875 173.976562 307.5 175.226562 307.269531 223.148438 C 307.046875 269.539062 307.121094 272.371094 308.617188 275.132812 C 312.707031 282.695312 324.824219 283.140625 329.242188 275.890625 C 330.90625 273.160156 330.964844 271.683594 330.96875 231.894531 L 330.972656 190.71875 L 336.945312 190.71875 L 336.945312 301.171875 C 336.945312 377.136719 337.226562 412.371094 337.851562 414.023438 C 339.050781 417.199219 342.726562 421.050781 345.90625 422.46875 C 349.523438 424.085938 355.550781 423.914062 359.59375 422.074219 Z M 275.929688 254.71875 L 275.929688 87.039062 L 259.929688 86.808594 L 243.929688 86.574219 L 243.929688 254.132812 C 243.929688 346.289062 244.195312 421.953125 244.519531 422.277344 C 244.84375 422.597656 252.042969 422.757812 260.519531 422.632812 L 275.929688 422.398438 Z M 151.34375 138.363281 C 157.730469 136.660156 160.46875 134.964844 165.210938 129.78125 C 170.316406 124.191406 172.25 119.15625 172.253906 111.421875 C 172.261719 103.117188 170.210938 98.222656 164.152344 92.085938 C 158.191406 86.046875 152.929688 83.828125 144.617188 83.859375 C 133.765625 83.894531 124.125 90.132812 119.535156 100.078125 C 113.800781 112.507812 118.609375 128.191406 130.253906 135.015625 C 137.488281 139.253906 144.078125 140.300781 151.34375 138.363281 Z M 378.152344 138.25 C 397.542969 133.199219 405.402344 111.140625 393.597656 94.890625 C 383.550781 81.054688 362.5 80.003906 351.027344 92.765625 C 341.503906 103.355469 341.414062 119.644531 350.816406 129.84375 C 355.125 134.519531 358.5 136.601562 364.320312 138.164062 C 370.308594 139.773438 372.257812 139.785156 378.152344 138.25 Z M 378.152344 138.25 "/>
</g>
</svg>
